{
  "accessors": [
    {
      "bufferView": 2,
      "componentType": 5126,
      "count": 3015,
      "max": [
        130.0,
        1230.080078125,
        30.0
      ],
      "min": [
        -130.0,
        769.9199829101563,
        -30.0
      ],
      "type": "VEC3"
    },
    {
      "bufferView": 2,
      "byteOffset": 36180,
      "componentType": 5126,
      "count": 3015,
      "max": [
        1.0,
        1.0,
        1.0
      ],
      "min": [
        -1.0,
        -1.0,
        -1.0
      ],
      "type": "VEC3"
    },
    {
      "bufferView": 3,
      "componentType": 5126,
      "count": 3015,
      "max": [
        1.0,
        1.0,
        1.0,
        1.0
      ],
      "min": [
        -1.0,
        -1.0,
        -1.0,
        1.0
      ],
      "type": "VEC4"
    },
    {
      "bufferView": 1,
      "componentType": 5126,
      "count": 3015,
      "max": [
        1.0,
        1.0
      ],
      "min": [
        0.0,
        0.0
      ],
      "type": "VEC2"
    },
    {
      "bufferView": 0,
      "componentType": 5125,
      "count": 17424,
      "type": "SCALAR"
    },
    {
      "bufferView": 2,
      "byteOffset": 72360,
      "componentType": 5126,
      "count": 3015,
      "max": [
        130.0,
        1230.080078125,
        30.0
      ],
      "min": [
        -130.0,
        769.9199829101563,
        -30.0
      ],
      "type": "VEC3"
    },
    {
      "bufferView": 2,
      "byteOffset": 108540,
      "componentType": 5126,
      "count": 3015,
      "max": [
        1.0,
        1.0,
        1.0
      ],
      "min": [
        -1.0,
        -1.0,
        -1.0
      ],
      "type": "VEC3"
    },
    {
      "bufferView": 3,
      "byteOffset": 48240,
      "componentType": 5126,
      "count": 3015,
      "max": [
        1.0,
        1.0,
        1.0,
        1.0
      ],
      "min": [
        -1.0,
        -1.0,
        -1.0,
        1.0
      ],
      "type": "VEC4"
    },
    {
      "bufferView": 1,
      "byteOffset": 24120,
      "componentType": 5126,
      "count": 3015,
      "max": [
        1.0,
        1.0
      ],
      "min": [
        0.0,
        0.0
      ],
      "type": "VEC2"
    },
    {
      "bufferView": 0,
      "byteOffset": 69696,
      "componentType": 5125,
      "count": 17424,
      "type": "SCALAR"
    },
    {
      "bufferView": 2,
      "byteOffset": 144720,
      "componentType": 5126,
      "count": 3015,
      "max": [
        130.0,
        1230.080078125,
        30.0
      ],
      "min": [
        -130.0,
        769.9199829101563,
        -30.0
      ],
      "type": "VEC3"
    },
    {
      "bufferView": 2,
      "byteOffset": 180900,
      "componentType": 5126,
      "count": 3015,
      "max": [
        1.0,
        1.0,
        1.0
      ],
      "min": [
        -1.0,
        -1.0,
        -1.0
      ],
      "type": "VEC3"
    },
    {
      "bufferView": 3,
      "byteOffset": 96480,
      "componentType": 5126,
      "count": 3015,
      "max": [
        1.0,
        1.0,
        1.0,
        1.0
      ],
      "min": [
        -1.0,
        -1.0,
        -1.0,
        1.0
      ],
      "type": "VEC4"
    },
    {
      "bufferView": 1,
      "byteOffset": 48240,
      "componentType": 5126,
      "count": 3015,
      "max": [
        1.0,
        1.0
      ],
      "min": [
        0.0,
        0.0
      ],
      "type": "VEC2"
    },
    {
      "bufferView": 0,
      "byteOffset": 139392,
      "componentType": 5125,
      "count": 17424,
      "type": "SCALAR"
    },
    {
      "bufferView": 2,
      "byteOffset": 217080,
      "componentType": 5126,
      "count": 3015,
      "max": [
        130.0,
        1230.080078125,
        30.0
      ],
      "min": [
        -130.0,
        769.9199829101563,
        -30.0
      ],
      "type": "VEC3"
    },
    {
      "bufferView": 2,
      "byteOffset": 253260,
      "componentType": 5126,
      "count": 3015,
      "max": [
        1.0,
        1.0,
        1.0
      ],
      "min": [
        -1.0,
        -1.0,
        -1.0
      ],
      "type": "VEC3"
    },
    {
      "bufferView": 3,
      "byteOffset": 144720,
      "componentType": 5126,
      "count": 3015,
      "max": [
        1.0,
        1.0,
        1.0,
        1.0
      ],
      "min": [
        -1.0,
        -1.0,
        -1.0,
        1.0
      ],
      "type": "VEC4"
    },
    {
      "bufferView": 1,
      "byteOffset": 72360,
      "componentType": 5126,
      "count": 3015,
      "max": [
        1.0,
        1.0
      ],
      "min": [
        0.0,
        0.0
      ],
      "type": "VEC2"
    },
    {
      "bufferView": 0,
      "byteOffset": 209088,
      "componentType": 5125,
      "count": 17424,
      "type": "SCALAR"
    },
    {
      "bufferView": 2,
      "byteOffset": 289440,
      "componentType": 5126,
      "count": 3015,
      "max": [
        130.0,
        1230.080078125,
        30.0
      ],
      "min": [
        -130.0,
        769.9199829101563,
        -30.0
      ],
      "type": "VEC3"
    },
    {
      "bufferView": 2,
      "byteOffset": 325620,
      "componentType": 5126,
      "count": 3015,
      "max": [
        1.0,
        1.0,
        1.0
      ],
      "min": [
        -1.0,
        -1.0,
        -1.0
      ],
      "type": "VEC3"
    },
    {
      "bufferView": 3,
      "byteOffset": 192960,
      "componentType": 5126,
      "count": 3015,
      "max": [
        1.0,
        1.0,
        1.0,
        1.0
      ],
      "min": [
        -1.0,
        -1.0,
        -1.0,
        1.0
      ],
      "type": "VEC4"
    },
    {
      "bufferView": 1,
      "byteOffset": 96480,
      "componentType": 5126,
      "count": 3015,
      "max": [
        1.0,
        1.0
      ],
      "min": [
        0.0,
        0.0
      ],
      "type": "VEC2"
    },
    {
      "bufferView": 0,
      "byteOffset": 278784,
      "componentType": 5125,
      "count": 17424,
      "type": "SCALAR"
    },
    {
      "bufferView": 2,
      "byteOffset": 361800,
      "componentType": 5126,
      "count": 3015,
      "max": [
        130.0,
        1230.080078125,
        30.0
      ],
      "min": [
        -130.0,
        769.9199829101563,
        -30.0
      ],
      "type": "VEC3"
    },
    {
      "bufferView": 2,
      "byteOffset": 397980,
      "componentType": 5126,
      "count": 3015,
      "max": [
        1.0,
        1.0,
        1.0
      ],
      "min": [
        -1.0,
        -1.0,
        -1.0
      ],
      "type": "VEC3"
    },
    {
      "bufferView": 3,
      "byteOffset": 241200,
      "componentType": 5126,
      "count": 3015,
      "max": [
        1.0,
        1.0,
        1.0,
        1.0
      ],
      "min": [
        -1.0,
        -1.0,
        -1.0,
        1.0
      ],
      "type": "VEC4"
    },
    {
      "bufferView": 1,
      "byteOffset": 120600,
      "componentType": 5126,
      "count": 3015,
      "max": [
        1.0,
        1.0
      ],
      "min": [
        0.0,
        0.0
      ],
      "type": "VEC2"
    },
    {
      "bufferView": 0,
      "byteOffset": 348480,
      "componentType": 5125,
      "count": 17424,
      "type": "SCALAR"
    },
    {
      "bufferView": 2,
      "byteOffset": 434160,
      "componentType": 5126,
      "count": 3015,
      "max": [
        130.0,
        1230.080078125,
        30.0
      ],
      "min": [
        -130.0,
        769.9199829101563,
        -30.0
      ],
      "type": "VEC3"
    },
    {
      "bufferView": 2,
      "byteOffset": 470340,
      "componentType": 5126,
      "count": 3015,
      "max": [
        1.0,
        1.0,
        1.0
      ],
      "min": [
        -1.0,
        -1.0,
        -1.0
      ],
      "type": "VEC3"
    },
    {
      "bufferView": 3,
      "byteOffset": 289440,
      "componentType": 5126,
      "count": 3015,
      "max": [
        1.0,
        1.0,
        1.0,
        1.0
      ],
      "min": [
        -1.0,
        -1.0,
        -1.0,
        1.0
      ],
      "type": "VEC4"
    },
    {
      "bufferView": 1,
      "byteOffset": 144720,
      "componentType": 5126,
      "count": 3015,
      "max": [
        1.0,
        1.0
      ],
      "min": [
        0.0,
        0.0
      ],
      "type": "VEC2"
    },
    {
      "bufferView": 0,
      "byteOffset": 418176,
      "componentType": 5125,
      "count": 17424,
      "type": "SCALAR"
    },
    {
      "bufferView": 2,
      "byteOffset": 506520,
      "componentType": 5126,
      "count": 3015,
      "max": [
        130.0,
        1230.080078125,
        30.0
      ],
      "min": [
        -130.0,
        769.9199829101563,
        -30.0
      ],
      "type": "VEC3"
    },
    {
      "bufferView": 2,
      "byteOffset": 542700,
      "componentType": 5126,
      "count": 3015,
      "max": [
        1.0,
        1.0,
        1.0
      ],
      "min": [
        -1.0,
        -1.0,
        -1.0
      ],
      "type": "VEC3"
    },
    {
      "bufferView": 3,
      "byteOffset": 337680,
      "componentType": 5126,
      "count": 3015,
      "max": [
        1.0,
        1.0,
        1.0,
        1.0
      ],
      "min": [
        -1.0,
        -1.0,
        -1.0,
        1.0
      ],
      "type": "VEC4"
    },
    {
      "bufferView": 1,
      "byteOffset": 168840,
      "componentType": 5126,
      "count": 3015,
      "max": [
        1.0,
        1.0
      ],
      "min": [
        0.0,
        0.0
      ],
      "type": "VEC2"
    },
    {
      "bufferView": 0,
      "byteOffset": 487872,
      "componentType": 5125,
      "count": 17424,
      "type": "SCALAR"
    },
    {
      "bufferView": 2,
      "byteOffset": 578880,
      "componentType": 5126,
      "count": 3015,
      "max": [
        130.0,
        1230.080078125,
        30.0
      ],
      "min": [
        -130.0,
        769.9199829101563,
        -30.0
      ],
      "type": "VEC3"
    },
    {
      "bufferView": 2,
      "byteOffset": 615060,
      "componentType": 5126,
      "count": 3015,
      "max": [
        1.0,
        1.0,
        1.0
      ],
      "min": [
        -1.0,
        -1.0,
        -1.0
      ],
      "type": "VEC3"
    },
    {
      "bufferView": 3,
      "byteOffset": 385920,
      "componentType": 5126,
      "count": 3015,
      "max": [
        1.0,
        1.0,
        1.0,
        1.0
      ],
      "min": [
        -1.0,
        -1.0,
        -1.0,
        1.0
      ],
      "type": "VEC4"
    },
    {
      "bufferView": 1,
      "byteOffset": 192960,
      "componentType": 5126,
      "count": 3015,
      "max": [
        1.0,
        1.0
      ],
      "min": [
        0.0,
        0.0
      ],
      "type": "VEC2"
    },
    {
      "bufferView": 0,
      "byteOffset": 557568,
      "componentType": 5125,
      "count": 17424,
      "type": "SCALAR"
    },
    {
      "bufferView": 2,
      "byteOffset": 651240,
      "componentType": 5126,
      "count": 3015,
      "max": [
        130.0,
        1230.080078125,
        30.0
      ],
      "min": [
        -130.0,
        769.9199829101563,
        -30.0
      ],
      "type": "VEC3"
    },
    {
      "bufferView": 2,
      "byteOffset": 687420,
      "componentType": 5126,
      "count": 3015,
      "max": [
        1.0,
        1.0,
        1.0
      ],
      "min": [
        -1.0,
        -1.0,
        -1.0
      ],
      "type": "VEC3"
    },
    {
      "bufferView": 3,
      "byteOffset": 434160,
      "componentType": 5126,
      "count": 3015,
      "max": [
        1.0,
        1.0,
        1.0,
        1.0
      ],
      "min": [
        -1.0,
        -1.0,
        -1.0,
        1.0
      ],
      "type": "VEC4"
    },
    {
      "bufferView": 1,
      "byteOffset": 217080,
      "componentType": 5126,
      "count": 3015,
      "max": [
        1.0,
        1.0
      ],
      "min": [
        0.0,
        0.0
      ],
      "type": "VEC2"
    },
    {
      "bufferView": 0,
      "byteOffset": 627264,
      "componentType": 5125,
      "count": 17424,
      "type": "SCALAR"
    }
  ],
  "asset": {
    "extras": {
      "author": "Adamante (https://sketchfab.com/Adamant6686)",
      "license": "CC-BY-4.0 (http://creativecommons.org/licenses/by/4.0/)",
      "source": "https://sketchfab.com/3d-models/iron-chain-6d079f01c7c142e0be54d7f2d33b33e6",
      "title": "Iron chain"
    },
    "generator": "Sketchfab-12.65.0",
    "version": "2.0"
  },
  "bufferViews": [
    {
      "buffer": 0,
      "byteLength": 696960,
      "name": "floatBufferViews",
      "target": 34963
    },
    {
      "buffer": 0,
      "byteLength": 241200,
      "byteOffset": 696960,
      "byteStride": 8,
      "name": "floatBufferViews",
      "target": 34962
    },
    {
      "buffer": 0,
      "byteLength": 723600,
      "byteOffset": 938160,
      "byteStride": 12,
      "name": "floatBufferViews",
      "target": 34962
    },
    {
      "buffer": 0,
      "byteLength": 482400,
      "byteOffset": 1661760,
      "byteStride": 16,
      "name": "floatBufferViews",
      "target": 34962
    }
  ],
  "buffers": [
    {
      "byteLength": 2144160,
      "uri": "scene.bin"
    }
  ],
  "images": [
    {
      "uri": "textures/material_baseColor.jpeg"
    },
    {
      "uri": "textures/material_metallicRoughness.png"
    },
    {
      "uri": "textures/material_normal.jpeg"
    }
  ],
  "materials": [
    {
      "doubleSided": true,
      "name": "material",
      "normalTexture": {
        "index": 2
      },
      "pbrMetallicRoughness": {
        "baseColorTexture": {
          "index": 0
        },
        "metallicRoughnessTexture": {
          "index": 1
        }
      }
    }
  ],
  "meshes": [
    {
      "name": "Sweep_0_Mat_0",
      "primitives": [
        {
          "attributes": {
            "NORMAL": 1,
            "POSITION": 0,
            "TANGENT": 2,
            "TEXCOORD_0": 3
          },
          "indices": 4,
          "material": 0,
          "mode": 4
        }
      ]
    },
    {
      "name": "Sweep_1_Mat_0",
      "primitives": [
        {
          "attributes": {
            "NORMAL": 6,
            "POSITION": 5,
            "TANGENT": 7,
            "TEXCOORD_0": 8
          },
          "indices": 9,
          "material": 0,
          "mode": 4
        }
      ]
    },
    {
      "name": "Sweep_2_Mat_0",
      "primitives": [
        {
          "attributes": {
            "NORMAL": 11,
            "POSITION": 10,
            "TANGENT": 12,
            "TEXCOORD_0": 13
          },
          "indices": 14,
          "material": 0,
          "mode": 4
        }
      ]
    },
    {
      "name": "Sweep_3_Mat_0",
      "primitives": [
        {
          "attributes": {
            "NORMAL": 16,
            "POSITION": 15,
            "TANGENT": 17,
            "TEXCOORD_0": 18
          },
          "indices": 19,
          "material": 0,
          "mode": 4
        }
      ]
    },
    {
      "name": "Sweep_4_Mat_0",
      "primitives": [
        {
          "attributes": {
            "NORMAL": 21,
            "POSITION": 20,
            "TANGENT": 22,
            "TEXCOORD_0": 23
          },
          "indices": 24,
          "material": 0,
          "mode": 4
        }
      ]
    },
    {
      "name": "Sweep_5_Mat_0",
      "primitives": [
        {
          "attributes": {
            "NORMAL": 26,
            "POSITION": 25,
            "TANGENT": 27,
            "TEXCOORD_0": 28
          },
          "indices": 29,
          "material": 0,
          "mode": 4
        }
      ]
    },
    {
      "name": "Sweep_6_Mat_0",
      "primitives": [
        {
          "attributes": {
            "NORMAL": 31,
            "POSITION": 30,
            "TANGENT": 32,
            "TEXCOORD_0": 33
          },
          "indices": 34,
          "material": 0,
          "mode": 4
        }
      ]
    },
    {
      "name": "Sweep_7_Mat_0",
      "primitives": [
        {
          "attributes": {
            "NORMAL": 36,
            "POSITION": 35,
            "TANGENT": 37,
            "TEXCOORD_0": 38
          },
          "indices": 39,
          "material": 0,
          "mode": 4
        }
      ]
    },
    {
      "name": "Sweep_8_Mat_0",
      "primitives": [
        {
          "attributes": {
            "NORMAL": 41,
            "POSITION": 40,
            "TANGENT": 42,
            "TEXCOORD_0": 43
          },
          "indices": 44,
          "material": 0,
          "mode": 4
        }
      ]
    },
    {
      "name": "Sweep_9_Mat_0",
      "primitives": [
        {
          "attributes": {
            "NORMAL": 46,
            "POSITION": 45,
            "TANGENT": 47,
            "TEXCOORD_0": 48
          },
          "indices": 49,
          "material": 0,
          "mode": 4
        }
      ]
    }
  ],
  "nodes": [
    {
      "children": [
        1
      ],
      "matrix": [
        1.0,
        0.0,
        0.0,
        0.0,
        0.0,
        2.220446049250313e-16,
        -1.0,
        0.0,
        0.0,
        1.0,
        2.220446049250313e-16,
        0.0,
        0.0,
        0.0,
        0.0,
        1.0
      ],
      "name": "Sketchfab_model"
    },
    {
      "children": [
        2
      ],
      "matrix": [
        1.0,
        0.0,
        0.0,
        0.0,
        0.0,
        0.0,
        1.0,
        0.0,
        0.0,
        -1.0,
        0.0,
        0.0,
        0.0,
        0.0,
        0.0,
        1.0
      ],
      "name": "6889ea9668204be19c040a98a0fc174a.fbx"
    },
    {
      "children": [
        3,
        5
      ],
      "name": "RootNode"
    },
    {
      "children": [
        4
      ],
      "matrix": [
        -0.09819512380724049,
        0.05463875124169856,
        -0.9936661031368781,
        0.0,
        0.005373285623040427,
        0.9985061876937708,
        0.05437389942670512,
        0.0,
        0.9951526744485462,
        -2.463307335887066e-16,
        -0.09834202833939343,
        0.0,
        1056.713134765625,
        -815.1768798828125,
        10345.400390625,
        1.0
      ],
      "name": "CINEMA_4D_Editor"
    },
    {
      "name": "Object_4"
    },
    {
      "children": [
        6,
        8,
        10,
        12,
        14,
        16,
        18,
        20,
        22,
        24
      ],
      "name": "Cloner"
    },
    {
      "children": [
        7
      ],
      "name": "Sweep_0"
    },
    {
      "mesh": 0,
      "name": "Sweep_0_Mat_0"
    },
    {
      "children": [
        9
      ],
      "matrix": [
        2.220446049250313e-16,
        0.0,
        -1.0,
        0.0,
        0.0,
        1.0,
        0.0,
        0.0,
        1.0,
        0.0,
        2.220446049250313e-16,
        0.0,
        0.0,
        -286.0,
        0.0,
        1.0
      ],
      "name": "Sweep_1"
    },
    {
      "mesh": 1,
      "name": "Sweep_1_Mat_0"
    },
    {
      "children": [
        11
      ],
      "matrix": [
        -1.0,
        -1.2246467991473532e-16,
        3.675178358715236e-15,
        0.0,
        -1.2246467991473576e-16,
        1.0,
        -1.2246467991473532e-16,
        0.0,
        -3.675178358715236e-15,
        -1.2246467991473576e-16,
        -1.0,
        0.0,
        0.0,
        -572.0,
        0.0,
        1.0
      ],
      "name": "Sweep_2"
    },
    {
      "mesh": 2,
      "name": "Sweep_2_Mat_0"
    },
    {
      "children": [
        13
      ],
      "matrix": [
        2.220446049250313e-16,
        0.0,
        1.0,
        0.0,
        0.0,
        1.0,
        0.0,
        0.0,
        -1.0,
        0.0,
        2.220446049250313e-16,
        0.0,
        0.0,
        -858.0,
        0.0,
        1.0
      ],
      "name": "Sweep_3"
    },
    {
      "mesh": 3,
      "name": "Sweep_3_Mat_0"
    },
    {
      "children": [
        15
      ],
      "matrix": [
        1.0,
        0.0,
        -6.860497997771532e-15,
        0.0,
        0.0,
        1.0,
        0.0,
        0.0,
        6.860497997771532e-15,
        0.0,
        1.0,
        0.0,
        0.0,
        -1144.0,
        0.0,
        1.0
      ],
      "name": "Sweep_4"
    },
    {
      "mesh": 4,
      "name": "Sweep_4_Mat_0"
    },
    {
      "children": [
        17
      ],
      "matrix": [
        2.220446049250313e-16,
        0.0,
        -1.0,
        0.0,
        0.0,
        1.0,
        0.0,
        0.0,
        1.0,
        0.0,
        2.220446049250313e-16,
        0.0,
        0.0,
        -1430.0,
        0.0,
        1.0
      ],
      "name": "Sweep_5"
    },
    {
      "mesh": 5,
      "name": "Sweep_5_Mat_0"
    },
    {
      "children": [
        19
      ],
      "matrix": [
        -1.0,
        -1.2246467991473532e-16,
        1.0780605716316238e-14,
        0.0,
        -1.2246467991473665e-16,
        1.0,
        -1.2246467991473532e-16,
        0.0,
        -1.0780605716316238e-14,
        -1.2246467991473665e-16,
        -1.0,
        0.0,
        0.0,
        -1716.0,
        0.0,
        1.0
      ],
      "name": "Sweep_6"
    },
    {
      "mesh": 6,
      "name": "Sweep_6_Mat_0"
    },
    {
      "children": [
        21
      ],
      "matrix": [
        2.220446049250313e-16,
        0.0,
        1.0,
        0.0,
        0.0,
        1.0,
        0.0,
        0.0,
        -1.0,
        0.0,
        2.220446049250313e-16,
        0.0,
        0.0,
        -2002.0,
        0.0,
        1.0
      ],
      "name": "Sweep_7"
    },
    {
      "mesh": 7,
      "name": "Sweep_7_Mat_0"
    },
    {
      "children": [
        23
      ],
      "matrix": [
        1.0,
        0.0,
        -1.3720995995543065e-14,
        0.0,
        0.0,
        1.0,
        0.0,
        0.0,
        1.3720995995543065e-14,
        0.0,
        1.0,
        0.0,
        0.0,
        -2288.0,
        0.0,
        1.0
      ],
      "name": "Sweep_8"
    },
    {
      "mesh": 8,
      "name": "Sweep_8_Mat_0"
    },
    {
      "children": [
        25
      ],
      "matrix": [
        2.220446049250313e-16,
        0.0,
        -1.0,
        0.0,
        0.0,
        1.0,
        0.0,
        0.0,
        1.0,
        0.0,
        2.220446049250313e-16,
        0.0,
        0.0,
        -2574.0,
        0.0,
        1.0
      ],
      "name": "Sweep_9"
    },
    {
      "mesh": 9,
      "name": "Sweep_9_Mat_0"
    }
  ],
  "samplers": [
    {
      "magFilter": 9729,
      "minFilter": 9987,
      "wrapS": 10497,
      "wrapT": 10497
    }
  ],
  "scene": 0,
  "scenes": [
    {
      "name": "Sketchfab_Scene",
      "nodes": [
        0
      ]
    }
  ],
  "textures": [
    {
      "sampler": 0,
      "source": 0
    },
    {
      "sampler": 0,
      "source": 1
    },
    {
      "sampler": 0,
      "source": 2
    }
  ]
}
